M48
; DRILL file {KiCad 8.0.2} date 2024-06-26T14:53:40+0700
; FORMAT={-:-/ absolute / inch / decimal}
; #@! TF.CreationDate,2024-06-26T14:53:40+07:00
; #@! TF.GenerationSoftware,Kicad,Pcbnew,8.0.2
; #@! TF.FileFunction,Plated,1,2,PTH
FMAT,2
INCH
; #@! TA.AperFunction,Plated,PTH,ComponentDrill
T1C0.0472
; #@! TA.AperFunction,Plated,PTH,ComponentDrill
T2C0.0984
%
G90
G05
T1
X0.1969Y-0.6481
X0.1969Y-1.2481
X0.1969Y-1.9866
X0.1969Y-2.5866
X0.6693Y-0.6481
X0.6693Y-1.2481
X0.6693Y-1.9866
X0.6693Y-2.5866
X1.1417Y-0.6481
X1.1417Y-1.2481
X1.1417Y-1.9866
X1.1417Y-2.5866
X1.6142Y-0.6481
X1.6142Y-1.2481
X1.6142Y-1.9866
X1.6142Y-2.5866
X2.0866Y-0.6481
X2.0866Y-1.2481
X2.0866Y-1.9866
X2.0866Y-2.5866
X2.5591Y-0.6481
X2.5591Y-1.2481
X2.5591Y-1.9866
X2.5591Y-2.5866
X3.0315Y-0.6481
X3.0315Y-1.2481
X3.0315Y-1.9866
X3.0315Y-2.5866
X3.5039Y-0.6481
X3.5039Y-1.2481
X3.5039Y-1.9866
X3.5039Y-2.5866
T2
X0.1969Y-1.4402
X0.1969Y-2.7788
X0.2008Y-0.4559
X0.2008Y-1.7945
X0.6693Y-1.4402
X0.6693Y-2.7788
X0.6732Y-0.4559
X0.6732Y-1.7945
X1.1417Y-1.4402
X1.1417Y-2.7788
X1.1457Y-0.4559
X1.1457Y-1.7945
X1.6142Y-1.4402
X1.6142Y-2.7788
X1.6181Y-0.4559
X1.6181Y-1.7945
X2.0866Y-1.4402
X2.0866Y-2.7788
X2.0906Y-0.4559
X2.0906Y-1.7945
X2.5591Y-1.4402
X2.5591Y-2.7788
X2.563Y-0.4559
X2.563Y-1.7945
X3.0315Y-1.4402
X3.0315Y-2.7788
X3.0354Y-0.4559
X3.0354Y-1.7945
X3.5039Y-1.4402
X3.5039Y-2.7788
X3.5079Y-0.4559
X3.5079Y-1.7945
M30
