%TF.GenerationSoftware,KiCad,Pcbnew,8.0.2*%
%TF.CreationDate,2024-06-26T14:53:40+07:00*%
%TF.ProjectId,Resistor_Panel,52657369-7374-46f7-925f-50616e656c2e,rev?*%
%TF.SameCoordinates,Original*%
%TF.FileFunction,Other,Comment*%
%FSLAX46Y46*%
G04 Gerber Fmt 4.6, Leading zero omitted, Abs format (unit mm)*
G04 Created by KiCad (PCBNEW 8.0.2) date 2024-06-26 14:53:40*
%MOMM*%
%LPD*%
G01*
G04 APERTURE LIST*
%ADD10C,0.150000*%
G04 APERTURE END LIST*
D10*
%TO.C,J1*%
X31600000Y-45580500D02*
G75*
G02*
X26600000Y-45580500I-2500000J0D01*
G01*
X26600000Y-45580500D02*
G75*
G02*
X31600000Y-45580500I2500000J0D01*
G01*
X91600000Y-11580500D02*
G75*
G02*
X86600000Y-11580500I-2500000J0D01*
G01*
X86600000Y-11580500D02*
G75*
G02*
X91600000Y-11580500I2500000J0D01*
G01*
%TO.C,J2*%
X43500000Y-70580500D02*
G75*
G02*
X38500000Y-70580500I-2500000J0D01*
G01*
X38500000Y-70580500D02*
G75*
G02*
X43500000Y-70580500I2500000J0D01*
G01*
%TO.C,J1*%
X91600000Y-45580500D02*
G75*
G02*
X86600000Y-45580500I-2500000J0D01*
G01*
X86600000Y-45580500D02*
G75*
G02*
X91600000Y-45580500I2500000J0D01*
G01*
X55600000Y-11580500D02*
G75*
G02*
X50600000Y-11580500I-2500000J0D01*
G01*
X50600000Y-11580500D02*
G75*
G02*
X55600000Y-11580500I2500000J0D01*
G01*
%TO.C,J2*%
X55500000Y-36580500D02*
G75*
G02*
X50500000Y-36580500I-2500000J0D01*
G01*
X50500000Y-36580500D02*
G75*
G02*
X55500000Y-36580500I2500000J0D01*
G01*
X79500000Y-70580500D02*
G75*
G02*
X74500000Y-70580500I-2500000J0D01*
G01*
X74500000Y-70580500D02*
G75*
G02*
X79500000Y-70580500I2500000J0D01*
G01*
%TO.C,J1*%
X43600000Y-11580500D02*
G75*
G02*
X38600000Y-11580500I-2500000J0D01*
G01*
X38600000Y-11580500D02*
G75*
G02*
X43600000Y-11580500I2500000J0D01*
G01*
%TO.C,J2*%
X31500000Y-36580500D02*
G75*
G02*
X26500000Y-36580500I-2500000J0D01*
G01*
X26500000Y-36580500D02*
G75*
G02*
X31500000Y-36580500I2500000J0D01*
G01*
%TO.C,J1*%
X55600000Y-45580500D02*
G75*
G02*
X50600000Y-45580500I-2500000J0D01*
G01*
X50600000Y-45580500D02*
G75*
G02*
X55600000Y-45580500I2500000J0D01*
G01*
%TO.C,J2*%
X67500000Y-36580500D02*
G75*
G02*
X62500000Y-36580500I-2500000J0D01*
G01*
X62500000Y-36580500D02*
G75*
G02*
X67500000Y-36580500I2500000J0D01*
G01*
X79500000Y-36580500D02*
G75*
G02*
X74500000Y-36580500I-2500000J0D01*
G01*
X74500000Y-36580500D02*
G75*
G02*
X79500000Y-36580500I2500000J0D01*
G01*
%TO.C,J1*%
X67600000Y-45580500D02*
G75*
G02*
X62600000Y-45580500I-2500000J0D01*
G01*
X62600000Y-45580500D02*
G75*
G02*
X67600000Y-45580500I2500000J0D01*
G01*
X79600000Y-11580500D02*
G75*
G02*
X74600000Y-11580500I-2500000J0D01*
G01*
X74600000Y-11580500D02*
G75*
G02*
X79600000Y-11580500I2500000J0D01*
G01*
%TO.C,J2*%
X67500000Y-70580500D02*
G75*
G02*
X62500000Y-70580500I-2500000J0D01*
G01*
X62500000Y-70580500D02*
G75*
G02*
X67500000Y-70580500I2500000J0D01*
G01*
%TO.C,J1*%
X7600000Y-11580500D02*
G75*
G02*
X2600000Y-11580500I-2500000J0D01*
G01*
X2600000Y-11580500D02*
G75*
G02*
X7600000Y-11580500I2500000J0D01*
G01*
X19600000Y-11580500D02*
G75*
G02*
X14600000Y-11580500I-2500000J0D01*
G01*
X14600000Y-11580500D02*
G75*
G02*
X19600000Y-11580500I2500000J0D01*
G01*
X31600000Y-11580500D02*
G75*
G02*
X26600000Y-11580500I-2500000J0D01*
G01*
X26600000Y-11580500D02*
G75*
G02*
X31600000Y-11580500I2500000J0D01*
G01*
X7600000Y-45580500D02*
G75*
G02*
X2600000Y-45580500I-2500000J0D01*
G01*
X2600000Y-45580500D02*
G75*
G02*
X7600000Y-45580500I2500000J0D01*
G01*
%TO.C,J2*%
X19500000Y-70580500D02*
G75*
G02*
X14500000Y-70580500I-2500000J0D01*
G01*
X14500000Y-70580500D02*
G75*
G02*
X19500000Y-70580500I2500000J0D01*
G01*
X91500000Y-36580500D02*
G75*
G02*
X86500000Y-36580500I-2500000J0D01*
G01*
X86500000Y-36580500D02*
G75*
G02*
X91500000Y-36580500I2500000J0D01*
G01*
X7500000Y-36580500D02*
G75*
G02*
X2500000Y-36580500I-2500000J0D01*
G01*
X2500000Y-36580500D02*
G75*
G02*
X7500000Y-36580500I2500000J0D01*
G01*
%TO.C,J1*%
X67600000Y-11580500D02*
G75*
G02*
X62600000Y-11580500I-2500000J0D01*
G01*
X62600000Y-11580500D02*
G75*
G02*
X67600000Y-11580500I2500000J0D01*
G01*
X43600000Y-45580500D02*
G75*
G02*
X38600000Y-45580500I-2500000J0D01*
G01*
X38600000Y-45580500D02*
G75*
G02*
X43600000Y-45580500I2500000J0D01*
G01*
%TO.C,J2*%
X91500000Y-70580500D02*
G75*
G02*
X86500000Y-70580500I-2500000J0D01*
G01*
X86500000Y-70580500D02*
G75*
G02*
X91500000Y-70580500I2500000J0D01*
G01*
X7500000Y-70580500D02*
G75*
G02*
X2500000Y-70580500I-2500000J0D01*
G01*
X2500000Y-70580500D02*
G75*
G02*
X7500000Y-70580500I2500000J0D01*
G01*
%TO.C,J1*%
X19600000Y-45580500D02*
G75*
G02*
X14600000Y-45580500I-2500000J0D01*
G01*
X14600000Y-45580500D02*
G75*
G02*
X19600000Y-45580500I2500000J0D01*
G01*
%TO.C,J2*%
X55500000Y-70580500D02*
G75*
G02*
X50500000Y-70580500I-2500000J0D01*
G01*
X50500000Y-70580500D02*
G75*
G02*
X55500000Y-70580500I2500000J0D01*
G01*
X19500000Y-36580500D02*
G75*
G02*
X14500000Y-36580500I-2500000J0D01*
G01*
X14500000Y-36580500D02*
G75*
G02*
X19500000Y-36580500I2500000J0D01*
G01*
%TO.C,J1*%
X79600000Y-45580500D02*
G75*
G02*
X74600000Y-45580500I-2500000J0D01*
G01*
X74600000Y-45580500D02*
G75*
G02*
X79600000Y-45580500I2500000J0D01*
G01*
%TO.C,J2*%
X31500000Y-70580500D02*
G75*
G02*
X26500000Y-70580500I-2500000J0D01*
G01*
X26500000Y-70580500D02*
G75*
G02*
X31500000Y-70580500I2500000J0D01*
G01*
X43500000Y-36580500D02*
G75*
G02*
X38500000Y-36580500I-2500000J0D01*
G01*
X38500000Y-36580500D02*
G75*
G02*
X43500000Y-36580500I2500000J0D01*
G01*
%TD*%
M02*
