%TF.GenerationSoftware,KiCad,Pcbnew,8.0.2*%
%TF.CreationDate,2024-06-26T14:53:40+07:00*%
%TF.ProjectId,Resistor_Panel,52657369-7374-46f7-925f-50616e656c2e,rev?*%
%TF.SameCoordinates,Original*%
%TF.FileFunction,Soldermask,Top*%
%TF.FilePolarity,Negative*%
%FSLAX46Y46*%
G04 Gerber Fmt 4.6, Leading zero omitted, Abs format (unit mm)*
G04 Created by KiCad (PCBNEW 8.0.2) date 2024-06-26 14:53:40*
%MOMM*%
%LPD*%
G01*
G04 APERTURE LIST*
%ADD10C,2.400000*%
%ADD11O,2.400000X2.400000*%
%ADD12C,4.000000*%
G04 APERTURE END LIST*
D10*
%TO.C,R1*%
X77000000Y-50460500D03*
D11*
X77000000Y-65700500D03*
%TD*%
D12*
%TO.C,J1*%
X29100000Y-45580500D03*
%TD*%
%TO.C,J1*%
X89100000Y-11580500D03*
%TD*%
D10*
%TO.C,R1*%
X41000000Y-50460500D03*
D11*
X41000000Y-65700500D03*
%TD*%
D12*
%TO.C,J2*%
X41000000Y-70580500D03*
%TD*%
D10*
%TO.C,R1*%
X65000000Y-16460500D03*
D11*
X65000000Y-31700500D03*
%TD*%
D12*
%TO.C,J1*%
X89100000Y-45580500D03*
%TD*%
%TO.C,J1*%
X53100000Y-11580500D03*
%TD*%
%TO.C,J2*%
X53000000Y-36580500D03*
%TD*%
%TO.C,J2*%
X77000000Y-70580500D03*
%TD*%
D10*
%TO.C,R1*%
X29000000Y-16460500D03*
D11*
X29000000Y-31700500D03*
%TD*%
D12*
%TO.C,J1*%
X41100000Y-11580500D03*
%TD*%
%TO.C,J2*%
X29000000Y-36580500D03*
%TD*%
%TO.C,J1*%
X53100000Y-45580500D03*
%TD*%
D10*
%TO.C,R1*%
X89000000Y-16460500D03*
D11*
X89000000Y-31700500D03*
%TD*%
D12*
%TO.C,J2*%
X65000000Y-36580500D03*
%TD*%
D10*
%TO.C,R1*%
X5000000Y-50460500D03*
D11*
X5000000Y-65700500D03*
%TD*%
D12*
%TO.C,J2*%
X77000000Y-36580500D03*
%TD*%
%TO.C,J1*%
X65100000Y-45580500D03*
%TD*%
D10*
%TO.C,R1*%
X5000000Y-16460500D03*
D11*
X5000000Y-31700500D03*
%TD*%
D12*
%TO.C,J1*%
X77100000Y-11580500D03*
%TD*%
%TO.C,J2*%
X65000000Y-70580500D03*
%TD*%
%TO.C,J1*%
X5100000Y-11580500D03*
%TD*%
D10*
%TO.C,R1*%
X29000000Y-50460500D03*
D11*
X29000000Y-65700500D03*
%TD*%
D12*
%TO.C,J1*%
X17100000Y-11580500D03*
%TD*%
%TO.C,J1*%
X29100000Y-11580500D03*
%TD*%
%TO.C,J1*%
X5100000Y-45580500D03*
%TD*%
%TO.C,J2*%
X17000000Y-70580500D03*
%TD*%
D10*
%TO.C,R1*%
X53000000Y-16460500D03*
D11*
X53000000Y-31700500D03*
%TD*%
D12*
%TO.C,J2*%
X89000000Y-36580500D03*
%TD*%
%TO.C,J2*%
X5000000Y-36580500D03*
%TD*%
%TO.C,J1*%
X65100000Y-11580500D03*
%TD*%
%TO.C,J1*%
X41100000Y-45580500D03*
%TD*%
D10*
%TO.C,R1*%
X65000000Y-50460500D03*
D11*
X65000000Y-65700500D03*
%TD*%
D12*
%TO.C,J2*%
X89000000Y-70580500D03*
%TD*%
%TO.C,J2*%
X5000000Y-70580500D03*
%TD*%
D10*
%TO.C,R1*%
X53000000Y-50460500D03*
D11*
X53000000Y-65700500D03*
%TD*%
D10*
%TO.C,R1*%
X41000000Y-16460500D03*
D11*
X41000000Y-31700500D03*
%TD*%
D10*
%TO.C,R1*%
X89000000Y-50460500D03*
D11*
X89000000Y-65700500D03*
%TD*%
D12*
%TO.C,J1*%
X17100000Y-45580500D03*
%TD*%
%TO.C,J2*%
X53000000Y-70580500D03*
%TD*%
%TO.C,J2*%
X17000000Y-36580500D03*
%TD*%
D10*
%TO.C,R1*%
X17000000Y-50460500D03*
D11*
X17000000Y-65700500D03*
%TD*%
D12*
%TO.C,J1*%
X77100000Y-45580500D03*
%TD*%
D10*
%TO.C,R1*%
X17000000Y-16460500D03*
D11*
X17000000Y-31700500D03*
%TD*%
D12*
%TO.C,J2*%
X29000000Y-70580500D03*
%TD*%
D10*
%TO.C,R1*%
X77000000Y-16460500D03*
D11*
X77000000Y-31700500D03*
%TD*%
D12*
%TO.C,J2*%
X41000000Y-36580500D03*
%TD*%
M02*
